# 3ds Max Wavefront OBJ Exporter v0.97b - (c)2007 guruware
# File Created: 25.10.2015 00:46:21

mtllib wallSegment.mtl

#
# object Box001
#

v  -1.0732 0.0000 10.0517
v  -1.0732 0.0000 -10.1016
v  1.1370 0.0000 -10.1016
v  1.1370 0.0000 10.0517
v  -1.0732 19.0742 4.6495
v  1.1370 19.0742 4.6495
v  1.1370 19.0742 -4.6994
v  -1.0732 19.0742 -4.6994
# 8 vertices

vn 0.0000 -1.0000 -0.0000
vn 0.0000 1.0000 -0.0000
vn 0.0000 0.2725 0.9622
vn 1.0000 0.0000 -0.0000
vn 0.0000 0.2725 -0.9622
vn -1.0000 0.0000 -0.0000
# 6 vertex normals

vt 2.2102 0.0000 0.0000
vt 2.2102 20.1533 0.0000
vt 0.0000 20.1533 0.0000
vt 0.0000 0.0000 0.0000
vt 2.2102 19.0742 0.0000
vt 0.0000 19.0742 0.0000
vt 20.1533 0.0000 0.0000
vt 20.1533 19.0742 0.0000
# 8 texture coords

g Box001
usemtl wire_088144225
s 2
f 1/1/1 2/2/1 3/3/1 4/4/1 
s 4
f 5/4/2 6/1/2 7/2/2 8/3/2 
s 8
f 1/4/3 4/1/3 6/5/3 5/6/3 
s 16
f 4/4/4 3/7/4 7/8/4 6/6/4 
s 32
f 3/4/5 2/1/5 8/5/5 7/6/5 
s 64
f 2/4/6 1/7/6 5/8/6 8/6/6 
# 6 polygons

